
      <svg
        width="300"
        height="550"
        viewBox="0 0 300 550"
        fill="none"
        xmlns="http://www.w3.org/2000/svg"
        role="img"
        aria-labelledby="descId"
      >
        <title id="titleId"></title>
        <desc id="descId"></desc>
        <style>
          .header {
            font: 600 18px 'Segoe UI', Ubuntu, Sans-Serif;
            fill: #2f80ed;
            animation: fadeInAnimation 0.8s ease-in-out forwards;
          }
          @supports(-moz-appearance: auto) {
            /* Selector detects Firefox */
            .header { font-size: 15.5px; }
          }
          
    @keyframes slideInAnimation {
      from {
        width: 0;
      }
      to {
        width: calc(100%-100px);
      }
    }
    @keyframes growWidthAnimation {
      from {
        width: 0;
      }
      to {
        width: 100%;
      }
    }
    .stat {
      font: 600 14px 'Segoe UI', Ubuntu, "Helvetica Neue", Sans-Serif; fill: #434d58;
    }
    @supports(-moz-appearance: auto) {
      /* Selector detects Firefox */
      .stat { font-size:12px; }
    }
    .bold { font-weight: 700 }
    .lang-name {
      font: 400 11px "Segoe UI", Ubuntu, Sans-Serif;
      fill: #434d58;
    }
    .stagger {
      opacity: 0;
      animation: fadeInAnimation 0.3s ease-in-out forwards;
    }
    #rect-mask rect{
      animation: slideInAnimation 1s ease-in-out forwards;
    }
    .lang-progress{
      animation: growWidthAnimation 0.6s ease-in-out forwards;
    }
    

          
      /* Animations */
      @keyframes scaleInAnimation {
        from {
          transform: translate(-5px, 5px) scale(0);
        }
        to {
          transform: translate(-5px, 5px) scale(1);
        }
      }
      @keyframes fadeInAnimation {
        from {
          opacity: 0;
        }
        to {
          opacity: 1;
        }
      }
    
          
        </style>

        

        <rect
          data-testid="card-bg"
          x="0.5"
          y="0.5"
          rx="4.5"
          height="99%"
          stroke="#e4e2e2"
          width="299"
          fill="#fffefe"
          stroke-opacity="1"
        />

        
      <g
        data-testid="card-title"
        transform="translate(25, 35)"
      >
        <g transform="translate(0, 0)">
      <text
        x="0"
        y="0"
        class="header"
        data-testid="header"
      >Most Used Languages</text>
    </g>
      </g>
    

        <g
          data-testid="main-card-body"
          transform="translate(0, 55)"
        >
          
    <svg data-testid="lang-items">
      <g transform="translate(0, 0)">
        <svg data-testid="pie">
          
      <g class="stagger" style="animation-delay: 100ms">
        <path
          data-testid="lang-pie"
          size="27.055130358782332"
          d="M 150 100 L 240 100 A 90 90 0 0 1 138.41078071714588 189.2507142627661 Z"
          fill="#555555"
        />
      </g>
    
      <g class="stagger" style="animation-delay: 200ms">
        <path
          data-testid="lang-pie"
          size="19.464612892750182"
          d="M 150 100 L 138.41078071714588 189.2507142627661 A 90 90 0 0 1 62.1432043104936 119.52391997454227 Z"
          fill="#3572A5"
        />
      </g>
    
      <g class="stagger" style="animation-delay: 300ms">
        <path
          data-testid="lang-pie"
          size="19.028840769710843"
          d="M 150 100 L 62.1432043104936 119.52391997454227 A 90 90 0 0 1 99.63996028766572 25.40867074403276 Z"
          fill="#f1e05a"
        />
      </g>
    
      <g class="stagger" style="animation-delay: 400ms">
        <path
          data-testid="lang-pie"
          size="8.39497461515126"
          d="M 150 100 L 99.63996028766572 25.40867074403276 A 90 90 0 0 1 144.03035085945308 10.19819996715674 Z"
          fill="#b07219"
        />
      </g>
    
      <g class="stagger" style="animation-delay: 500ms">
        <path
          data-testid="lang-pie"
          size="7.711060417142758"
          d="M 150 100 L 144.03035085945308 10.19819996715674 A 90 90 0 0 1 186.54404969223137 17.75322236043698 Z"
          fill="#f34b7d"
        />
      </g>
    
      <g class="stagger" style="animation-delay: 600ms">
        <path
          data-testid="lang-pie"
          size="3.8864009643436086"
          d="M 150 100 L 186.54404969223137 17.75322236043698 A 90 90 0 0 1 205.3447379307471 29.028456523921335 Z"
          fill="#A97BFF"
        />
      </g>
    
      <g class="stagger" style="animation-delay: 700ms">
        <path
          data-testid="lang-pie"
          size="2.8494643055215887"
          d="M 150 100 L 205.3447379307471 29.028456523921335 A 90 90 0 0 1 217.09885307004453 40.01880364076939 Z"
          fill="#00ADD8"
        />
      </g>
    
      <g class="stagger" style="animation-delay: 800ms">
        <path
          data-testid="lang-pie"
          size="2.0951754755232326"
          d="M 150 100 L 217.09885307004453 40.01880364076939 A 90 90 0 0 1 224.39164105129416 49.34544697961095 Z"
          fill="#e34c26"
        />
      </g>
    
      <g class="stagger" style="animation-delay: 900ms">
        <path
          data-testid="lang-pie"
          size="1.8145589691573087"
          d="M 150 100 L 224.39164105129416 49.34544697961095 A 90 90 0 0 1 229.67139345282342 58.13749810050282 Z"
          fill="#663399"
        />
      </g>
    
      <g class="stagger" style="animation-delay: 1000ms">
        <path
          data-testid="lang-pie"
          size="1.6082995559154916"
          d="M 150 100 L 229.67139345282342 58.13749810050282 A 90 90 0 0 1 233.48806545394842 66.38835132342916 Z"
          fill="#F05138"
        />
      </g>
    
      <g class="stagger" style="animation-delay: 1100ms">
        <path
          data-testid="lang-pie"
          size="1.1666740168466125"
          d="M 150 100 L 233.48806545394842 66.38835132342916 A 90 90 0 0 1 235.72552556142483 72.59317115721893 Z"
          fill="#701516"
        />
      </g>
    
      <g class="stagger" style="animation-delay: 1200ms">
        <path
          data-testid="lang-pie"
          size="1.0119995028605564"
          d="M 150 100 L 235.72552556142483 72.59317115721893 A 90 90 0 0 1 237.29379433450487 78.09581157209502 Z"
          fill="#3178c6"
        />
      </g>
    
      <g class="stagger" style="animation-delay: 1300ms">
        <path
          data-testid="lang-pie"
          size="0.8548927475106277"
          d="M 150 100 L 237.29379433450487 78.09581157209502 A 90 90 0 0 1 238.34389925881163 82.81409112822548 Z"
          fill="#3D6117"
        />
      </g>
    
      <g class="stagger" style="animation-delay: 1400ms">
        <path
          data-testid="lang-pie"
          size="0.8096156390446905"
          d="M 150 100 L 238.34389925881163 82.81409112822548 A 90 90 0 0 1 239.10348339160393 87.32840785527866 Z"
          fill="#ec915c"
        />
      </g>
    
      <g class="stagger" style="animation-delay: 1500ms">
        <path
          data-testid="lang-pie"
          size="0.5549519498691"
          d="M 150 100 L 239.10348339160393 87.32840785527866 A 90 90 0 0 1 239.49107373131392 90.44239975639624 Z"
          fill="#ff3e00"
        />
      </g>
    
      <g class="stagger" style="animation-delay: 1600ms">
        <path
          data-testid="lang-pie"
          size="0.49125929964812687"
          d="M 150 100 L 239.49107373131392 90.44239975639624 A 90 90 0 0 1 239.74341061830881 93.20881081152817 Z"
          fill="#89e051"
        />
      </g>
    
      <g class="stagger" style="animation-delay: 1700ms">
        <path
          data-testid="lang-pie"
          size="0.4851653322749074"
          d="M 150 100 L 239.74341061830881 93.20881081152817 A 90 90 0 0 1 239.9087056148629 95.94726577975783 Z"
          fill="#c6538c"
        />
      </g>
    
      <g class="stagger" style="animation-delay: 1800ms">
        <path
          data-testid="lang-pie"
          size="0.42008282984600703"
          d="M 150 100 L 239.9087056148629 95.94726577975783 A 90 90 0 0 1 239.9843467127619 98.32150463883363 Z"
          fill="#AA6746"
        />
      </g>
    
      <g class="stagger" style="animation-delay: 1900ms">
        <path
          data-testid="lang-pie"
          size="0.23868038878442724"
          d="M 150 100 L 239.9843467127619 98.32150463883363 A 90 90 0 0 1 239.99939907523174 99.67111385377963 Z"
          fill="#dea584"
        />
      </g>
    
      <g class="stagger" style="animation-delay: 2000ms">
        <path
          data-testid="lang-pie"
          size="0.05815996931633972"
          d="M 150 100 L 239.99939907523174 99.67111385377963 A 90 90 0 0 1 240 100.00000000000006 Z"
          fill="#302B6D"
        />
      </g>
    
        </svg>
      </g>
      <g transform="translate(0, 220)">
        <svg data-testid="lang-names" x="25">
          <g transform="translate(0, 0)"><g transform="translate(0, 0)">
    <g class="stagger" style="animation-delay: 450ms">
      <circle cx="5" cy="6" r="5" fill="#555555" />
      <text data-testid="lang-name" x="15" y="10" class='lang-name'>
        C 27.06%
      </text>
    </g>
  </g><g transform="translate(0, 25)">
    <g class="stagger" style="animation-delay: 600ms">
      <circle cx="5" cy="6" r="5" fill="#3572A5" />
      <text data-testid="lang-name" x="15" y="10" class='lang-name'>
        Python 19.46%
      </text>
    </g>
  </g><g transform="translate(0, 50)">
    <g class="stagger" style="animation-delay: 750ms">
      <circle cx="5" cy="6" r="5" fill="#f1e05a" />
      <text data-testid="lang-name" x="15" y="10" class='lang-name'>
        JavaScript 19.03%
      </text>
    </g>
  </g><g transform="translate(0, 75)">
    <g class="stagger" style="animation-delay: 900ms">
      <circle cx="5" cy="6" r="5" fill="#b07219" />
      <text data-testid="lang-name" x="15" y="10" class='lang-name'>
        Java 8.39%
      </text>
    </g>
  </g><g transform="translate(0, 100)">
    <g class="stagger" style="animation-delay: 1050ms">
      <circle cx="5" cy="6" r="5" fill="#f34b7d" />
      <text data-testid="lang-name" x="15" y="10" class='lang-name'>
        C++ 7.71%
      </text>
    </g>
  </g><g transform="translate(0, 125)">
    <g class="stagger" style="animation-delay: 1200ms">
      <circle cx="5" cy="6" r="5" fill="#A97BFF" />
      <text data-testid="lang-name" x="15" y="10" class='lang-name'>
        Kotlin 3.89%
      </text>
    </g>
  </g><g transform="translate(0, 150)">
    <g class="stagger" style="animation-delay: 1350ms">
      <circle cx="5" cy="6" r="5" fill="#00ADD8" />
      <text data-testid="lang-name" x="15" y="10" class='lang-name'>
        Go 2.85%
      </text>
    </g>
  </g><g transform="translate(0, 175)">
    <g class="stagger" style="animation-delay: 1500ms">
      <circle cx="5" cy="6" r="5" fill="#e34c26" />
      <text data-testid="lang-name" x="15" y="10" class='lang-name'>
        HTML 2.10%
      </text>
    </g>
  </g><g transform="translate(0, 200)">
    <g class="stagger" style="animation-delay: 1650ms">
      <circle cx="5" cy="6" r="5" fill="#663399" />
      <text data-testid="lang-name" x="15" y="10" class='lang-name'>
        CSS 1.81%
      </text>
    </g>
  </g><g transform="translate(0, 225)">
    <g class="stagger" style="animation-delay: 1800ms">
      <circle cx="5" cy="6" r="5" fill="#F05138" />
      <text data-testid="lang-name" x="15" y="10" class='lang-name'>
        Swift 1.61%
      </text>
    </g>
  </g></g><g transform="translate(150, 0)"><g transform="translate(0, 0)">
    <g class="stagger" style="animation-delay: 450ms">
      <circle cx="5" cy="6" r="5" fill="#701516" />
      <text data-testid="lang-name" x="15" y="10" class='lang-name'>
        Ruby 1.17%
      </text>
    </g>
  </g><g transform="translate(0, 25)">
    <g class="stagger" style="animation-delay: 600ms">
      <circle cx="5" cy="6" r="5" fill="#3178c6" />
      <text data-testid="lang-name" x="15" y="10" class='lang-name'>
        TypeScript 1.01%
      </text>
    </g>
  </g><g transform="translate(0, 50)">
    <g class="stagger" style="animation-delay: 750ms">
      <circle cx="5" cy="6" r="5" fill="#3D6117" />
      <text data-testid="lang-name" x="15" y="10" class='lang-name'>
        TeX 0.85%
      </text>
    </g>
  </g><g transform="translate(0, 75)">
    <g class="stagger" style="animation-delay: 900ms">
      <circle cx="5" cy="6" r="5" fill="#ec915c" />
      <text data-testid="lang-name" x="15" y="10" class='lang-name'>
        Zig 0.81%
      </text>
    </g>
  </g><g transform="translate(0, 100)">
    <g class="stagger" style="animation-delay: 1050ms">
      <circle cx="5" cy="6" r="5" fill="#ff3e00" />
      <text data-testid="lang-name" x="15" y="10" class='lang-name'>
        Svelte 0.55%
      </text>
    </g>
  </g><g transform="translate(0, 125)">
    <g class="stagger" style="animation-delay: 1200ms">
      <circle cx="5" cy="6" r="5" fill="#89e051" />
      <text data-testid="lang-name" x="15" y="10" class='lang-name'>
        Shell 0.49%
      </text>
    </g>
  </g><g transform="translate(0, 150)">
    <g class="stagger" style="animation-delay: 1350ms">
      <circle cx="5" cy="6" r="5" fill="#c6538c" />
      <text data-testid="lang-name" x="15" y="10" class='lang-name'>
        SCSS 0.49%
      </text>
    </g>
  </g><g transform="translate(0, 175)">
    <g class="stagger" style="animation-delay: 1500ms">
      <circle cx="5" cy="6" r="5" fill="#AA6746" />
      <text data-testid="lang-name" x="15" y="10" class='lang-name'>
        Solidity 0.42%
      </text>
    </g>
  </g><g transform="translate(0, 200)">
    <g class="stagger" style="animation-delay: 1650ms">
      <circle cx="5" cy="6" r="5" fill="#dea584" />
      <text data-testid="lang-name" x="15" y="10" class='lang-name'>
        Rust 0.24%
      </text>
    </g>
  </g><g transform="translate(0, 225)">
    <g class="stagger" style="animation-delay: 1800ms">
      <circle cx="5" cy="6" r="5" fill="#302B6D" />
      <text data-testid="lang-name" x="15" y="10" class='lang-name'>
        Puppet 0.06%
      </text>
    </g>
  </g></g>
        </svg>
      </g>
    </svg>
  
        </g>
      </svg>
    