
      <svg
        width="300"
        height="550"
        viewBox="0 0 300 550"
        fill="none"
        xmlns="http://www.w3.org/2000/svg"
        role="img"
        aria-labelledby="descId"
      >
        <title id="titleId"></title>
        <desc id="descId"></desc>
        <style>
          .header {
            font: 600 18px 'Segoe UI', Ubuntu, Sans-Serif;
            fill: #2f80ed;
            animation: fadeInAnimation 0.8s ease-in-out forwards;
          }
          @supports(-moz-appearance: auto) {
            /* Selector detects Firefox */
            .header { font-size: 15.5px; }
          }
          
    @keyframes slideInAnimation {
      from {
        width: 0;
      }
      to {
        width: calc(100%-100px);
      }
    }
    @keyframes growWidthAnimation {
      from {
        width: 0;
      }
      to {
        width: 100%;
      }
    }
    .stat {
      font: 600 14px 'Segoe UI', Ubuntu, "Helvetica Neue", Sans-Serif; fill: #434d58;
    }
    @supports(-moz-appearance: auto) {
      /* Selector detects Firefox */
      .stat { font-size:12px; }
    }
    .bold { font-weight: 700 }
    .lang-name {
      font: 400 11px "Segoe UI", Ubuntu, Sans-Serif;
      fill: #434d58;
    }
    .stagger {
      opacity: 0;
      animation: fadeInAnimation 0.3s ease-in-out forwards;
    }
    #rect-mask rect{
      animation: slideInAnimation 1s ease-in-out forwards;
    }
    .lang-progress{
      animation: growWidthAnimation 0.6s ease-in-out forwards;
    }
    

          
      /* Animations */
      @keyframes scaleInAnimation {
        from {
          transform: translate(-5px, 5px) scale(0);
        }
        to {
          transform: translate(-5px, 5px) scale(1);
        }
      }
      @keyframes fadeInAnimation {
        from {
          opacity: 0;
        }
        to {
          opacity: 1;
        }
      }
    
          
        </style>

        

        <rect
          data-testid="card-bg"
          x="0.5"
          y="0.5"
          rx="4.5"
          height="99%"
          stroke="#e4e2e2"
          width="299"
          fill="#fffefe"
          stroke-opacity="1"
        />

        
      <g
        data-testid="card-title"
        transform="translate(25, 35)"
      >
        <g transform="translate(0, 0)">
      <text
        x="0"
        y="0"
        class="header"
        data-testid="header"
      >Most Used Languages</text>
    </g>
      </g>
    

        <g
          data-testid="main-card-body"
          transform="translate(0, 55)"
        >
          
    <svg data-testid="lang-items">
      <g transform="translate(0, 0)">
        <svg data-testid="pie">
          
      <g class="stagger" style="animation-delay: 100ms">
        <path
          data-testid="lang-pie"
          size="27.055101433711204"
          d="M 150 100 L 240 100 A 90 90 0 0 1 138.410942922825 189.25073532504916 Z"
          fill="#555555"
        />
      </g>
    
      <g class="stagger" style="animation-delay: 200ms">
        <path
          data-testid="lang-pie"
          size="19.464592082822275"
          d="M 150 100 L 138.410942922825 189.25073532504916 A 90 90 0 0 1 62.143265322043064 119.5241945218511 Z"
          fill="#3572A5"
        />
      </g>
    
      <g class="stagger" style="animation-delay: 300ms">
        <path
          data-testid="lang-pie"
          size="19.028820425673857"
          d="M 150 100 L 62.143265322043064 119.5241945218511 A 90 90 0 0 1 99.6396318479341 25.408892489865877 Z"
          fill="#f1e05a"
        />
      </g>
    
      <g class="stagger" style="animation-delay: 400ms">
        <path
          data-testid="lang-pie"
          size="8.394965639950083"
          d="M 150 100 L 99.6396318479341 25.408892489865877 A 90 90 0 0 1 144.02990480283114 10.198229620253358 Z"
          fill="#b07219"
        />
      </g>
    
      <g class="stagger" style="animation-delay: 500ms">
        <path
          data-testid="lang-pie"
          size="7.711052173125152"
          d="M 150 100 L 144.02990480283114 10.198229620253358 A 90 90 0 0 1 186.54359855896703 17.753021913500902 Z"
          fill="#f34b7d"
        />
      </g>
    
      <g class="stagger" style="animation-delay: 600ms">
        <path
          data-testid="lang-pie"
          size="3.8863968093303884"
          d="M 150 100 L 186.54359855896703 17.753021913500902 A 90 90 0 0 1 205.34433011469034 29.028138504360896 Z"
          fill="#A97BFF"
        />
      </g>
    
      <g class="stagger" style="animation-delay: 700ms">
        <path
          data-testid="lang-pie"
          size="2.8494612591138795"
          d="M 150 100 L 205.34433011469034 29.028138504360896 A 90 90 0 0 1 217.09849692512552 40.01840523636505 Z"
          fill="#00ADD8"
        />
      </g>
    
      <g class="stagger" style="animation-delay: 800ms">
        <path
          data-testid="lang-pie"
          size="2.0951732355377346"
          d="M 150 100 L 217.09849692512552 40.01840523636505 A 90 90 0 0 1 224.39133315472014 49.34499480344086 Z"
          fill="#e34c26"
        />
      </g>
    
      <g class="stagger" style="animation-delay: 900ms">
        <path
          data-testid="lang-pie"
          size="1.8145570291833903"
          d="M 150 100 L 224.39133315472014 49.34499480344086 A 90 90 0 0 1 229.67113389438893 58.137004120794785 Z"
          fill="#663399"
        />
      </g>
    
      <g class="stagger" style="animation-delay: 1000ms">
        <path
          data-testid="lang-pie"
          size="1.6082978364568001"
          d="M 150 100 L 229.67113389438893 58.137004120794785 A 90 90 0 0 1 233.48785342123094 66.38782465958121 Z"
          fill="#F05138"
        />
      </g>
    
      <g class="stagger" style="animation-delay: 1100ms">
        <path
          data-testid="lang-pie"
          size="1.1666727695368242"
          d="M 150 100 L 233.48785342123094 66.38782465958121 A 90 90 0 0 1 235.72535052234917 72.59262366040178 Z"
          fill="#701516"
        />
      </g>
    
      <g class="stagger" style="animation-delay: 1200ms">
        <path
          data-testid="lang-pie"
          size="1.0119984209157566"
          d="M 150 100 L 235.72535052234917 72.59262366040178 A 90 90 0 0 1 237.2936529496381 78.09524812493565 Z"
          fill="#3178c6"
        />
      </g>
    
      <g class="stagger" style="animation-delay: 1300ms">
        <path
          data-testid="lang-pie"
          size="0.8549987451251654"
          d="M 150 100 L 237.2936529496381 78.09524812493565 A 90 90 0 0 1 238.3439027890369 82.81410927530378 Z"
          fill="#3D6117"
        />
      </g>
    
      <g class="stagger" style="animation-delay: 1400ms">
        <path
          data-testid="lang-pie"
          size="0.8096147734717054"
          d="M 150 100 L 238.3439027890369 82.81410927530378 A 90 90 0 0 1 239.10348530537436 87.3284213124436 Z"
          fill="#ec915c"
        />
      </g>
    
      <g class="stagger" style="animation-delay: 1500ms">
        <path
          data-testid="lang-pie"
          size="0.5549513565611244"
          d="M 150 100 L 239.10348530537436 87.3284213124436 A 90 90 0 0 1 239.49107481848898 90.4424099359928 Z"
          fill="#ff3e00"
        />
      </g>
    
      <g class="stagger" style="animation-delay: 1600ms">
        <path
          data-testid="lang-pie"
          size="0.4912587744349789"
          d="M 150 100 L 239.49107481848898 90.4424099359928 A 90 90 0 0 1 239.74341116669527 93.20881805828505 Z"
          fill="#89e051"
        />
      </g>
    
      <g class="stagger" style="animation-delay: 1700ms">
        <path
          data-testid="lang-pie"
          size="0.4851648135769171"
          d="M 150 100 L 239.74341116669527 93.20881805828505 A 90 90 0 0 1 239.90870581003833 95.94727010966955 Z"
          fill="#c6538c"
        />
      </g>
    
      <g class="stagger" style="animation-delay: 1800ms">
        <path
          data-testid="lang-pie"
          size="0.42008238072875753"
          d="M 150 100 L 239.90870581003833 95.94727010966955 A 90 90 0 0 1 239.98434674623127 98.32150643313149 Z"
          fill="#AA6746"
        />
      </g>
    
      <g class="stagger" style="animation-delay: 1900ms">
        <path
          data-testid="lang-pie"
          size="0.23868013360741902"
          d="M 150 100 L 239.98434674623127 98.32150643313149 A 90 90 0 0 1 239.99939907651665 99.6711142053953 Z"
          fill="#dea584"
        />
      </g>
    
      <g class="stagger" style="animation-delay: 2000ms">
        <path
          data-testid="lang-pie"
          size="0.05815990713658946"
          d="M 150 100 L 239.99939907651665 99.6711142053953 A 90 90 0 0 1 240 99.9999999999999 Z"
          fill="#302B6D"
        />
      </g>
    
        </svg>
      </g>
      <g transform="translate(0, 220)">
        <svg data-testid="lang-names" x="25">
          <g transform="translate(0, 0)"><g transform="translate(0, 0)">
    <g class="stagger" style="animation-delay: 450ms">
      <circle cx="5" cy="6" r="5" fill="#555555" />
      <text data-testid="lang-name" x="15" y="10" class='lang-name'>
        C 27.06%
      </text>
    </g>
  </g><g transform="translate(0, 25)">
    <g class="stagger" style="animation-delay: 600ms">
      <circle cx="5" cy="6" r="5" fill="#3572A5" />
      <text data-testid="lang-name" x="15" y="10" class='lang-name'>
        Python 19.46%
      </text>
    </g>
  </g><g transform="translate(0, 50)">
    <g class="stagger" style="animation-delay: 750ms">
      <circle cx="5" cy="6" r="5" fill="#f1e05a" />
      <text data-testid="lang-name" x="15" y="10" class='lang-name'>
        JavaScript 19.03%
      </text>
    </g>
  </g><g transform="translate(0, 75)">
    <g class="stagger" style="animation-delay: 900ms">
      <circle cx="5" cy="6" r="5" fill="#b07219" />
      <text data-testid="lang-name" x="15" y="10" class='lang-name'>
        Java 8.39%
      </text>
    </g>
  </g><g transform="translate(0, 100)">
    <g class="stagger" style="animation-delay: 1050ms">
      <circle cx="5" cy="6" r="5" fill="#f34b7d" />
      <text data-testid="lang-name" x="15" y="10" class='lang-name'>
        C++ 7.71%
      </text>
    </g>
  </g><g transform="translate(0, 125)">
    <g class="stagger" style="animation-delay: 1200ms">
      <circle cx="5" cy="6" r="5" fill="#A97BFF" />
      <text data-testid="lang-name" x="15" y="10" class='lang-name'>
        Kotlin 3.89%
      </text>
    </g>
  </g><g transform="translate(0, 150)">
    <g class="stagger" style="animation-delay: 1350ms">
      <circle cx="5" cy="6" r="5" fill="#00ADD8" />
      <text data-testid="lang-name" x="15" y="10" class='lang-name'>
        Go 2.85%
      </text>
    </g>
  </g><g transform="translate(0, 175)">
    <g class="stagger" style="animation-delay: 1500ms">
      <circle cx="5" cy="6" r="5" fill="#e34c26" />
      <text data-testid="lang-name" x="15" y="10" class='lang-name'>
        HTML 2.10%
      </text>
    </g>
  </g><g transform="translate(0, 200)">
    <g class="stagger" style="animation-delay: 1650ms">
      <circle cx="5" cy="6" r="5" fill="#663399" />
      <text data-testid="lang-name" x="15" y="10" class='lang-name'>
        CSS 1.81%
      </text>
    </g>
  </g><g transform="translate(0, 225)">
    <g class="stagger" style="animation-delay: 1800ms">
      <circle cx="5" cy="6" r="5" fill="#F05138" />
      <text data-testid="lang-name" x="15" y="10" class='lang-name'>
        Swift 1.61%
      </text>
    </g>
  </g></g><g transform="translate(150, 0)"><g transform="translate(0, 0)">
    <g class="stagger" style="animation-delay: 450ms">
      <circle cx="5" cy="6" r="5" fill="#701516" />
      <text data-testid="lang-name" x="15" y="10" class='lang-name'>
        Ruby 1.17%
      </text>
    </g>
  </g><g transform="translate(0, 25)">
    <g class="stagger" style="animation-delay: 600ms">
      <circle cx="5" cy="6" r="5" fill="#3178c6" />
      <text data-testid="lang-name" x="15" y="10" class='lang-name'>
        TypeScript 1.01%
      </text>
    </g>
  </g><g transform="translate(0, 50)">
    <g class="stagger" style="animation-delay: 750ms">
      <circle cx="5" cy="6" r="5" fill="#3D6117" />
      <text data-testid="lang-name" x="15" y="10" class='lang-name'>
        TeX 0.85%
      </text>
    </g>
  </g><g transform="translate(0, 75)">
    <g class="stagger" style="animation-delay: 900ms">
      <circle cx="5" cy="6" r="5" fill="#ec915c" />
      <text data-testid="lang-name" x="15" y="10" class='lang-name'>
        Zig 0.81%
      </text>
    </g>
  </g><g transform="translate(0, 100)">
    <g class="stagger" style="animation-delay: 1050ms">
      <circle cx="5" cy="6" r="5" fill="#ff3e00" />
      <text data-testid="lang-name" x="15" y="10" class='lang-name'>
        Svelte 0.55%
      </text>
    </g>
  </g><g transform="translate(0, 125)">
    <g class="stagger" style="animation-delay: 1200ms">
      <circle cx="5" cy="6" r="5" fill="#89e051" />
      <text data-testid="lang-name" x="15" y="10" class='lang-name'>
        Shell 0.49%
      </text>
    </g>
  </g><g transform="translate(0, 150)">
    <g class="stagger" style="animation-delay: 1350ms">
      <circle cx="5" cy="6" r="5" fill="#c6538c" />
      <text data-testid="lang-name" x="15" y="10" class='lang-name'>
        SCSS 0.49%
      </text>
    </g>
  </g><g transform="translate(0, 175)">
    <g class="stagger" style="animation-delay: 1500ms">
      <circle cx="5" cy="6" r="5" fill="#AA6746" />
      <text data-testid="lang-name" x="15" y="10" class='lang-name'>
        Solidity 0.42%
      </text>
    </g>
  </g><g transform="translate(0, 200)">
    <g class="stagger" style="animation-delay: 1650ms">
      <circle cx="5" cy="6" r="5" fill="#dea584" />
      <text data-testid="lang-name" x="15" y="10" class='lang-name'>
        Rust 0.24%
      </text>
    </g>
  </g><g transform="translate(0, 225)">
    <g class="stagger" style="animation-delay: 1800ms">
      <circle cx="5" cy="6" r="5" fill="#302B6D" />
      <text data-testid="lang-name" x="15" y="10" class='lang-name'>
        Puppet 0.06%
      </text>
    </g>
  </g></g>
        </svg>
      </g>
    </svg>
  
        </g>
      </svg>
    